<svg width="43" height="42" viewBox="0 0 43 42" fill="none" xmlns="http://www.w3.org/2000/svg">
<path d="M21.5 3.9375C12.092 3.9375 4.4375 11.592 4.4375 21C4.4375 30.408 12.092 38.0625 21.5 38.0625C30.908 38.0625 38.5625 30.408 38.5625 21C38.5625 11.592 30.908 3.9375 21.5 3.9375ZM21.5 6.5625C29.4603 6.5625 35.9375 13.0397 35.9375 21C35.9375 28.9603 29.4603 35.4375 21.5 35.4375C13.5397 35.4375 7.0625 28.9603 7.0625 21C7.0625 13.0397 13.5397 6.5625 21.5 6.5625ZM14.9375 15.75C12.1891 15.75 10.1994 17.3342 10.1994 17.3342L11.8006 19.4158C11.8006 19.4158 13.2208 18.375 14.9388 18.375C16.6569 18.375 18.0757 19.4158 18.0757 19.4158L19.6769 17.3342C19.673 17.3342 17.6846 15.75 14.9375 15.75ZM28.0625 15.75C25.3141 15.75 23.3244 17.3342 23.3244 17.3342L24.9256 19.4158C24.9256 19.4158 26.3457 18.375 28.0638 18.375C29.7819 18.375 31.2007 19.4158 31.2007 19.4158L32.8019 17.3342C32.798 17.3342 30.8096 15.75 28.0625 15.75ZM14.6881 24.9375L12.4306 26.25C13.3421 27.8171 14.6387 29.1254 16.1975 30.051C16.5873 30.282 16.9903 30.4881 17.4089 30.6679C18.2607 31.0309 19.1572 31.2781 20.0746 31.4029C21.0204 31.5327 21.9796 31.5327 22.9254 31.4029C25.2024 31.0878 27.3118 30.0299 28.9261 28.3933C29.5623 27.7513 30.1145 27.0311 30.5694 26.25L28.3119 24.9375C27.4404 26.4487 26.0915 27.6275 24.4772 28.2887C22.8629 28.9499 21.0746 29.0559 19.3934 28.5902C18.7326 28.4072 18.0988 28.1375 17.5087 27.7883C16.3395 27.0962 15.3671 26.1143 14.6881 24.9375Z" fill="#251D18"/>
</svg>
