<svg width="40" height="40" viewBox="0 0 40 40" fill="none" xmlns="http://www.w3.org/2000/svg">
<g clip-path="url(#clip0_201_35)">
<path d="M16.23 2.50203C15.918 2.81403 15.814 3.20403 15.918 3.93203L16.048 4.92003H15.034C13.578 4.92003 12.46 5.98603 12.278 7.54603C12.174 8.50803 12.018 8.76803 11.42 9.02803C10.588 9.41803 9.75599 10.926 9.93799 11.81C10.016 12.278 9.91199 12.46 9.41799 12.59C8.58599 12.798 7.77999 14.176 7.77999 15.45C7.77999 16.282 7.64999 16.542 7.20799 16.75C6.86999 16.906 6.37599 17.426 6.11599 17.92C5.43999 19.194 5.69999 20.494 6.92199 21.846L7.85799 22.886L4.16599 26.604C1.14999 29.62 0.473991 30.452 0.551991 30.946C0.733991 32.324 1.51399 31.856 5.43999 27.93C8.81999 24.55 9.36599 24.108 9.93799 24.264C11.524 24.654 13.37 23.588 13.656 22.08C13.786 21.482 13.968 21.3 14.462 21.3C15.242 21.3 16.334 20.234 16.516 19.246C16.646 18.674 16.854 18.466 17.426 18.336C18.362 18.154 19.402 17.088 19.61 16.074C19.74 15.476 19.922 15.32 20.442 15.32C20.832 15.32 21.378 15.008 21.846 14.514C22.444 13.864 22.6 13.474 22.6 12.486C22.6 11.81 22.47 11.134 22.34 11.004C22.158 10.822 23.016 9.80803 24.94 7.93603C27.696 5.20603 27.8 5.12803 28.372 5.49203C29.49 6.24603 29.282 6.87003 27.15 9.08003C25.044 11.212 24.758 11.992 25.98 12.148C26.474 12.2 26.994 11.862 28.19 10.64C29.828 9.00203 30.686 8.69003 31.18 9.57403C31.622 10.406 31.518 10.614 29.698 12.486C28.242 13.994 28.008 14.384 28.216 14.748C28.736 15.554 29.334 15.372 30.608 14.046C31.882 12.72 32.61 12.434 33.208 13.032C33.806 13.63 33.52 14.54 32.324 15.84C31.102 17.14 30.92 17.972 31.778 18.128C32.038 18.18 32.636 17.868 33.156 17.426C33.65 16.984 34.144 16.62 34.248 16.62C34.742 16.62 35.6 17.478 35.6 17.946C35.6 18.31 33.988 20.078 31.128 22.912C26.214 27.748 24.94 28.606 22.054 29.074L20.416 29.36L17.088 32.662C13.5 36.224 13.162 36.64 13.396 37.264C13.786 38.278 14.384 37.94 17.062 35.288L19.714 32.636L20.598 33.052C21.092 33.286 22.054 33.546 22.756 33.65C23.9 33.806 24.238 34.04 26.006 35.782C27.54 37.29 28.138 37.706 28.606 37.628C29.854 37.472 29.516 36.666 27.124 34.274C25.304 32.454 24.654 31.96 24.082 31.96C22.99 31.96 21.014 31.414 21.196 31.154C21.274 31.024 21.612 30.92 21.95 30.92C23.016 30.92 25.85 29.906 27.15 29.048C27.878 28.58 30.4 26.214 32.792 23.796C36.042 20.494 37.186 19.168 37.316 18.544C37.524 17.478 36.848 15.918 36.016 15.528C35.47 15.294 35.34 15.06 35.34 14.228C35.34 12.902 34.742 11.81 33.806 11.394C33.39 11.212 33.104 10.926 33.182 10.718C33.416 10.12 32.714 8.56003 31.856 7.85803C31.232 7.33803 30.946 6.84403 30.842 6.09003C30.738 5.38803 30.426 4.81603 29.854 4.32203C29.178 3.69803 28.866 3.59403 27.774 3.64603C26.89 3.69803 26.37 3.59403 26.032 3.28203C25.044 2.39803 23.432 2.06003 19.974 2.06003C17.218 2.06003 16.594 2.13803 16.23 2.50203ZM24.524 4.50403L25.252 4.97203L23.094 7.15603L20.936 9.34003L20.052 8.48203L19.194 7.65003L20.624 7.57203C22.08 7.49403 22.73 7.10403 22.47 6.40203C22.34 6.11603 21.794 5.98603 20.468 5.90803C18.934 5.83003 18.57 5.70003 18.154 5.20603C17.14 3.95803 17.374 3.82803 20.728 3.93203C23.172 3.98403 23.952 4.11403 24.524 4.50403ZM18.232 9.28803C19.766 10.822 21.04 12.226 21.04 12.408C21.04 12.798 20.104 13.76 19.714 13.76C19.168 13.76 14.02 8.48203 14.02 7.93603C14.02 7.39003 14.722 6.48003 15.164 6.48003C15.294 6.48003 16.698 7.75403 18.232 9.28803ZM15.71 12.72C17.894 14.904 17.998 15.086 17.764 15.762C17.27 17.166 16.516 16.88 13.994 14.384C12.72 13.11 11.68 11.888 11.68 11.628C11.68 11.394 11.862 11.004 12.096 10.796C12.304 10.562 12.694 10.38 12.928 10.38C13.188 10.38 14.436 11.42 15.71 12.72ZM13.058 16.074C14.15 17.192 15.06 18.258 15.06 18.414C15.06 18.804 14.098 19.74 13.708 19.74C13.318 19.74 9.33999 15.762 9.33999 15.372C9.33999 14.956 10.302 14.02 10.718 14.02C10.926 14.02 11.966 14.93 13.058 16.074ZM10.562 19.532C12.044 20.988 12.304 21.872 11.446 22.34C10.64 22.756 10.432 22.678 8.92399 21.274C7.51999 19.922 7.20799 19.116 7.83199 18.492C8.42999 17.894 9.20999 18.18 10.562 19.532Z" fill="#251D18"/>
<path d="M34.144 24.004C33.858 24.732 34.248 25.252 35.002 25.148C35.574 25.096 35.73 24.94 35.73 24.42C35.73 23.9 35.574 23.744 35.002 23.692C34.534 23.64 34.248 23.744 34.144 24.004Z" fill="black"/>
<path d="M36.302 25.642C35.834 26.084 36.224 26.994 37.264 28.034C38.512 29.256 39.318 29.36 39.448 28.346C39.604 27.228 36.978 24.966 36.302 25.642Z" fill="black"/>
</g>
<defs>
<clipPath id="clip0_201_35">
<rect width="39" height="39" fill="white" transform="translate(0.5 0.5)"/>
</clipPath>
</defs>
</svg>
