<svg width="100" height="36" viewBox="0 0 100 36" fill="none" xmlns="http://www.w3.org/2000/svg">
<path d="M2.0918 28V3.05664H5.36133L14.5723 26.6992V3.05664H15.082V28H11.8125L2.58398 4.42773V28H2.0918ZM23.959 28.3516C22.2715 28.3516 20.8887 27.8418 19.8105 26.8223C18.7324 25.8027 18.1934 24.5254 18.1934 22.9902C18.1934 21.3496 18.75 20.0078 19.8633 18.9648C20.9883 17.9102 22.4473 17.3828 24.2402 17.3828H28.9336V13.8848C28.9336 12.5488 28.6289 11.5117 28.0195 10.7734C27.4219 10.0234 26.6543 9.64844 25.7168 9.64844C24.8262 9.64844 24.0703 10.0293 23.4492 10.791C22.8281 11.5527 22.5176 12.6191 22.5176 13.9902V15.0098H19.459C19.459 13.3223 20.0508 11.9277 21.2344 10.8262C22.4297 9.72461 23.9238 9.17383 25.7168 9.17383C27.5215 9.17383 29.0098 9.73633 30.1816 10.8613C31.3652 11.9746 31.957 13.416 31.957 15.1855V28H28.9336V25.2578C28.5352 26.2305 27.9023 26.9922 27.0352 27.543C26.1797 28.082 25.1543 28.3516 23.959 28.3516ZM25.084 27.3848C26.1738 27.3848 27.0879 26.9512 27.8262 26.084C28.5645 25.2051 28.9336 24.1035 28.9336 22.7793V17.8398H25.6465C24.2988 17.8398 23.2383 18.3086 22.4648 19.2461C21.6914 20.1719 21.3047 21.373 21.3047 22.8496C21.3047 24.1738 21.6504 25.2637 22.3418 26.1191C23.0449 26.9629 23.959 27.3848 25.084 27.3848ZM39.9023 28H36.8438V10H34.7168V9.52539H36.8438V4.81445H39.9023V9.52539H42.0293V10H39.9023V28ZM58.6934 28H55.6699V24.8711C55.248 25.9375 54.5801 26.7871 53.666 27.4199C52.752 28.041 51.6914 28.3516 50.4844 28.3516C48.8203 28.3516 47.4492 27.7891 46.3711 26.6641C45.293 25.5391 44.7539 24.127 44.7539 22.4277V9.52539H47.8301V22.6387C47.8301 23.9512 48.1875 25.0527 48.9023 25.9434C49.6172 26.834 50.5312 27.2793 51.6445 27.2793C52.7812 27.2793 53.7363 26.8281 54.5098 25.9258C55.2832 25.0234 55.6699 23.9277 55.6699 22.6387V9.52539H58.6934V28ZM62.8066 9.52539H65.8652V11.9512C66.2285 11.084 66.7734 10.4043 67.5 9.91211C68.2383 9.41992 69.0938 9.17383 70.0664 9.17383C71.4375 9.17383 72.5625 9.64258 73.4414 10.5801C74.3203 11.5059 74.7598 12.707 74.7598 14.1836H71.666C71.666 13.0352 71.3848 12.0859 70.8223 11.3359C70.2715 10.5859 69.5801 10.2109 68.748 10.2109C67.9395 10.2109 67.2539 10.5859 66.6914 11.3359C66.1406 12.0859 65.8652 13.0234 65.8652 14.1484V28H62.8066V9.52539ZM80.5254 28H77.4668V0.279297H80.5254V28ZM89.3848 28.3516C87.6973 28.3516 86.3145 27.8418 85.2363 26.8223C84.1582 25.8027 83.6191 24.5254 83.6191 22.9902C83.6191 21.3496 84.1758 20.0078 85.2891 18.9648C86.4141 17.9102 87.873 17.3828 89.666 17.3828H94.3594V13.8848C94.3594 12.5488 94.0547 11.5117 93.4453 10.7734C92.8477 10.0234 92.0801 9.64844 91.1426 9.64844C90.252 9.64844 89.4961 10.0293 88.875 10.791C88.2539 11.5527 87.9434 12.6191 87.9434 13.9902V15.0098H84.8848C84.8848 13.3223 85.4766 11.9277 86.6602 10.8262C87.8555 9.72461 89.3496 9.17383 91.1426 9.17383C92.9473 9.17383 94.4355 9.73633 95.6074 10.8613C96.791 11.9746 97.3828 13.416 97.3828 15.1855V28H94.3594V25.2578C93.9609 26.2305 93.3281 26.9922 92.4609 27.543C91.6055 28.082 90.5801 28.3516 89.3848 28.3516ZM90.5098 27.3848C91.5996 27.3848 92.5137 26.9512 93.252 26.084C93.9902 25.2051 94.3594 24.1035 94.3594 22.7793V17.8398H91.0723C89.7246 17.8398 88.6641 18.3086 87.8906 19.2461C87.1172 20.1719 86.7305 21.373 86.7305 22.8496C86.7305 24.1738 87.0762 25.2637 87.7676 26.1191C88.4707 26.9629 89.3848 27.3848 90.5098 27.3848Z" fill="#251D18"/>
<path d="M3.33594 31.2464C3.30942 31.0111 3.20005 30.8288 3.00781 30.6996C2.81558 30.5687 2.57363 30.5032 2.28196 30.5032C2.07315 30.5032 1.89252 30.5363 1.74006 30.6026C1.58759 30.6673 1.46911 30.7567 1.38459 30.8711C1.30173 30.9838 1.2603 31.1122 1.2603 31.2564C1.2603 31.3774 1.28847 31.4818 1.34482 31.5696C1.40282 31.6574 1.47822 31.7312 1.57102 31.7908C1.66548 31.8488 1.76657 31.8977 1.87429 31.9375C1.98201 31.9756 2.08558 32.0071 2.18501 32.032L2.68217 32.1612C2.84458 32.201 3.01113 32.2549 3.18182 32.3228C3.35251 32.3907 3.51077 32.4802 3.65661 32.5913C3.80244 32.7023 3.9201 32.8398 4.00959 33.0039C4.10073 33.168 4.14631 33.3643 4.14631 33.593C4.14631 33.8814 4.07173 34.1374 3.92259 34.3612C3.77509 34.5849 3.56049 34.7614 3.27876 34.8906C2.9987 35.0199 2.6598 35.0845 2.26207 35.0845C1.88092 35.0845 1.55114 35.024 1.27273 34.9031C0.994318 34.7821 0.776397 34.6106 0.618963 34.3885C0.461529 34.1648 0.374527 33.8996 0.357955 33.593H1.12855C1.14347 33.777 1.20313 33.9303 1.30753 34.0529C1.41359 34.1739 1.54865 34.2642 1.71271 34.3239C1.87843 34.3819 2.0599 34.4109 2.2571 34.4109C2.4742 34.4109 2.66726 34.3769 2.83629 34.3089C3.00698 34.2393 3.14122 34.1432 3.23899 34.0206C3.33677 33.8963 3.38565 33.7513 3.38565 33.5856C3.38565 33.4348 3.34257 33.3113 3.25639 33.2152C3.17188 33.1191 3.0567 33.0395 2.91087 32.9766C2.76669 32.9136 2.60346 32.8581 2.42116 32.81L1.8196 32.646C1.41193 32.5349 1.08878 32.3717 0.850142 32.1562C0.613163 31.9408 0.494673 31.6558 0.494673 31.3011C0.494673 31.0078 0.574219 30.7518 0.73331 30.533C0.892401 30.3143 1.10784 30.1444 1.37962 30.0234C1.6514 29.9008 1.95798 29.8395 2.29936 29.8395C2.64406 29.8395 2.94815 29.9 3.21165 30.021C3.4768 30.1419 3.68561 30.3085 3.83807 30.5206C3.99053 30.7311 4.07008 30.973 4.0767 31.2464H3.33594ZM5.06419 35V29.9091H5.8323V32.3402H5.89444L8.02974 29.9091H8.99672L6.94345 32.201L9.00417 35H8.07946L6.43386 32.7255L5.8323 33.4165V35H5.06419ZM10.4807 29.9091V35H9.71262V29.9091H10.4807ZM15.7084 29.9091V35H15.0024L12.4147 31.2663H12.3675V35H11.5993V29.9091H12.3103L14.9005 33.6477H14.9477V29.9091H15.7084ZM21.458 31.2464C21.4315 31.0111 21.3221 30.8288 21.1299 30.6996C20.9376 30.5687 20.6957 30.5032 20.404 30.5032C20.1952 30.5032 20.0146 30.5363 19.8621 30.6026C19.7097 30.6673 19.5912 30.7567 19.5067 30.8711C19.4238 30.9838 19.3824 31.1122 19.3824 31.2564C19.3824 31.3774 19.4105 31.4818 19.4669 31.5696C19.5249 31.6574 19.6003 31.7312 19.6931 31.7908C19.7876 31.8488 19.8886 31.8977 19.9964 31.9375C20.1041 31.9756 20.2077 32.0071 20.3071 32.032L20.8042 32.1612C20.9666 32.201 21.1332 32.2549 21.3039 32.3228C21.4746 32.3907 21.6328 32.4802 21.7787 32.5913C21.9245 32.7023 22.0422 32.8398 22.1317 33.0039C22.2228 33.168 22.2684 33.3643 22.2684 33.593C22.2684 33.8814 22.1938 34.1374 22.0447 34.3612C21.8972 34.5849 21.6826 34.7614 21.4008 34.8906C21.1208 35.0199 20.7819 35.0845 20.3841 35.0845C20.003 35.0845 19.6732 35.024 19.3948 34.9031C19.1164 34.7821 18.8985 34.6106 18.741 34.3885C18.5836 34.1648 18.4966 33.8996 18.48 33.593H19.2506C19.2655 33.777 19.3252 33.9303 19.4296 34.0529C19.5357 34.1739 19.6707 34.2642 19.8348 34.3239C20.0005 34.3819 20.182 34.4109 20.3792 34.4109C20.5963 34.4109 20.7893 34.3769 20.9584 34.3089C21.1291 34.2393 21.2633 34.1432 21.3611 34.0206C21.4588 33.8963 21.5077 33.7513 21.5077 33.5856C21.5077 33.4348 21.4646 33.3113 21.3785 33.2152C21.2939 33.1191 21.1788 33.0395 21.0329 32.9766C20.8888 32.9136 20.7255 32.8581 20.5432 32.81L19.9417 32.646C19.534 32.5349 19.2108 32.3717 18.9722 32.1562C18.7352 31.9408 18.6167 31.6558 18.6167 31.3011C18.6167 31.0078 18.6963 30.7518 18.8554 30.533C19.0145 30.3143 19.2299 30.1444 19.5017 30.0234C19.7735 29.9008 20.08 29.8395 20.4214 29.8395C20.7661 29.8395 21.0702 29.9 21.3337 30.021C21.5989 30.1419 21.8077 30.3085 21.9601 30.5206C22.1126 30.7311 22.1921 30.973 22.1988 31.2464H21.458ZM27.4146 31.5646H26.639C26.6092 31.3989 26.5537 31.2531 26.4725 31.1271C26.3913 31.0012 26.2918 30.8943 26.1742 30.8065C26.0565 30.7186 25.9248 30.6523 25.7789 30.6076C25.6348 30.5629 25.4815 30.5405 25.3191 30.5405C25.0257 30.5405 24.7631 30.6142 24.5311 30.7617C24.3007 30.9092 24.1184 31.1255 23.9842 31.4105C23.8516 31.6955 23.7853 32.0436 23.7853 32.4545C23.7853 32.8688 23.8516 33.2185 23.9842 33.5036C24.1184 33.7886 24.3016 34.004 24.5336 34.1499C24.7656 34.2957 25.0266 34.3686 25.3166 34.3686C25.4773 34.3686 25.6298 34.3471 25.774 34.304C25.9198 34.2592 26.0516 34.1938 26.1692 34.1076C26.2869 34.0214 26.3863 33.9162 26.4675 33.7919C26.5504 33.666 26.6075 33.5218 26.639 33.3594L27.4146 33.3619C27.3732 33.6121 27.2928 33.8424 27.1735 34.0529C27.0558 34.2617 26.9042 34.4424 26.7186 34.5948C26.5346 34.7456 26.3242 34.8625 26.0872 34.9453C25.8502 35.0282 25.5917 35.0696 25.3116 35.0696C24.8708 35.0696 24.478 34.9652 24.1333 34.7564C23.7886 34.5459 23.5169 34.2451 23.318 33.854C23.1208 33.4629 23.0222 32.9964 23.0222 32.4545C23.0222 31.911 23.1216 31.4445 23.3205 31.055C23.5194 30.6639 23.7911 30.364 24.1358 30.1552C24.4805 29.9447 24.8725 29.8395 25.3116 29.8395C25.5817 29.8395 25.8336 29.8784 26.0673 29.9563C26.3026 30.0326 26.5139 30.1452 26.7012 30.2944C26.8884 30.4419 27.0434 30.6225 27.166 30.8363C27.2886 31.0484 27.3715 31.2912 27.4146 31.5646ZM29.1018 29.9091V35H28.3337V29.9091H29.1018ZM30.2204 35V29.9091H33.4122V30.5703H30.9885V32.1214H33.2456V32.7802H30.9885V34.3388H33.442V35H30.2204ZM38.5472 29.9091V35H37.8413L35.2536 31.2663H35.2063V35H34.4382V29.9091H35.1491L37.7393 33.6477H37.7866V29.9091H38.5472ZM43.896 31.5646H43.1205C43.0906 31.3989 43.0351 31.2531 42.9539 31.1271C42.8727 31.0012 42.7733 30.8943 42.6556 30.8065C42.538 30.7186 42.4062 30.6523 42.2604 30.6076C42.1162 30.5629 41.9629 30.5405 41.8005 30.5405C41.5072 30.5405 41.2445 30.6142 41.0125 30.7617C40.7822 30.9092 40.5999 31.1255 40.4656 31.4105C40.3331 31.6955 40.2668 32.0436 40.2668 32.4545C40.2668 32.8688 40.3331 33.2185 40.4656 33.5036C40.5999 33.7886 40.783 34.004 41.015 34.1499C41.247 34.2957 41.508 34.3686 41.798 34.3686C41.9588 34.3686 42.1112 34.3471 42.2554 34.304C42.4012 34.2592 42.533 34.1938 42.6507 34.1076C42.7683 34.0214 42.8677 33.9162 42.949 33.7919C43.0318 33.666 43.089 33.5218 43.1205 33.3594L43.896 33.3619C43.8546 33.6121 43.7742 33.8424 43.6549 34.0529C43.5373 34.2617 43.3856 34.4424 43.2 34.5948C43.0161 34.7456 42.8056 34.8625 42.5686 34.9453C42.3316 35.0282 42.0731 35.0696 41.7931 35.0696C41.3522 35.0696 40.9595 34.9652 40.6148 34.7564C40.2701 34.5459 39.9983 34.2451 39.7994 33.854C39.6022 33.4629 39.5036 32.9964 39.5036 32.4545C39.5036 31.911 39.6031 31.4445 39.8019 31.055C40.0008 30.6639 40.2726 30.364 40.6173 30.1552C40.962 29.9447 41.3539 29.8395 41.7931 29.8395C42.0632 29.8395 42.3151 29.8784 42.5487 29.9563C42.7841 30.0326 42.9954 30.1452 43.1826 30.2944C43.3699 30.4419 43.5248 30.6225 43.6475 30.8363C43.7701 31.0484 43.853 31.2912 43.896 31.5646ZM44.8152 35V29.9091H48.0069V30.5703H45.5833V32.1214H47.8404V32.7802H45.5833V34.3388H48.0368V35H44.8152Z" fill="#251D18"/>
</svg>
