<svg width="32" height="32" viewBox="0 0 32 32" fill="none" xmlns="http://www.w3.org/2000/svg">
<path d="M12.0534 28.7201C13.3334 29.1068 14.6267 29.3334 16 29.3334C19.5362 29.3334 22.9276 27.9287 25.4281 25.4282C27.9286 22.9277 29.3334 19.5363 29.3334 16.0001C29.3334 14.2491 28.9885 12.5153 28.3184 10.8976C27.6484 9.27996 26.6662 7.81011 25.4281 6.57199C24.19 5.33388 22.7201 4.35175 21.1025 3.68169C19.4848 3.01162 17.751 2.66675 16 2.66675C14.2491 2.66675 12.5152 3.01162 10.8976 3.68169C9.2799 4.35175 7.81004 5.33388 6.57193 6.57199C4.07144 9.07248 2.66669 12.4639 2.66669 16.0001C2.66669 21.6667 6.22669 26.5334 11.2534 28.4534C11.1334 27.4134 11.0134 25.6934 11.2534 24.5067L12.7867 17.9201C12.7867 17.9201 12.4 17.1467 12.4 15.9201C12.4 14.0801 13.5467 12.7067 14.8534 12.7067C16 12.7067 16.5334 13.5467 16.5334 14.6267C16.5334 15.7734 15.7734 17.4134 15.3867 18.9867C15.16 20.2934 16.08 21.4401 17.4134 21.4401C19.7867 21.4401 21.6267 18.9067 21.6267 15.3334C21.6267 12.1334 19.3334 9.94675 16.04 9.94675C12.28 9.94675 10.0667 12.7467 10.0667 15.6934C10.0667 16.8401 10.44 18.0001 11.0534 18.7601C11.1734 18.8401 11.1734 18.9467 11.1334 19.1467L10.7467 20.6001C10.7467 20.8267 10.6 20.9067 10.3734 20.7467C8.66669 20.0001 7.68002 17.5734 7.68002 15.6134C7.68002 11.4001 10.6667 7.57341 16.4267 7.57341C21.0134 7.57341 24.5867 10.8667 24.5867 15.2401C24.5867 19.8267 21.7467 23.5067 17.68 23.5067C16.3867 23.5067 15.12 22.8134 14.6667 22.0001L13.7734 25.1601C13.4667 26.3067 12.6267 27.8401 12.0534 28.7601V28.7201Z" fill="white"/>
</svg>
