<svg width="1440" height="565" viewBox="0 0 1440 565" fill="none" xmlns="http://www.w3.org/2000/svg">
<g clip-path="url(#clip0_201_70)">
<rect width="1440" height="565" fill="#251D18"/>
<path opacity="0.5" d="M1399.67 -210.628C1325.6 -214.643 1252.08 -194.929 1188.42 -153.979C1124.76 -113.028 1073.81 -52.681 1042.01 19.4321C1010.22 91.5453 999.008 172.185 1009.8 251.155C1020.59 330.124 1052.9 403.876 1102.64 463.084C1152.38 522.292 1217.32 564.298 1289.24 583.788C1361.16 603.278 1436.84 599.378 1506.71 572.581C1576.57 545.784 1637.48 497.293 1681.74 433.241C1725.99 369.189 1751.6 292.452 1755.33 212.734L1757.43 167.949L1840.66 172.461L1838.56 217.245C1825.83 489.311 1610.56 698.765 1357.75 685.062C1104.95 671.359 910.323 439.686 923.056 167.62C935.789 -104.446 1151.06 -313.9 1403.86 -300.197L1445.48 -297.941L1441.29 -208.372L1399.67 -210.628ZM1391.29 -31.4899C1343.1 -34.1015 1295.56 -18.6306 1256.79 12.2813C1218.02 43.1933 1190.42 87.6295 1178.71 138.003C1167 188.377 1171.89 241.564 1192.56 288.485C1213.24 335.405 1248.4 373.149 1292.05 395.273C1335.7 417.396 1385.14 422.527 1431.92 409.789C1478.69 397.051 1519.91 367.234 1548.53 325.43C1577.15 283.625 1591.41 232.425 1588.85 180.571C1586.3 128.716 1567.1 79.4234 1534.54 41.1077L1506.42 8.02035L1567.91 -52.5365L1595.99 -19.4515C1641.59 34.1864 1668.47 103.196 1672.05 175.794C1675.63 248.392 1655.69 320.077 1615.62 378.608C1575.55 437.14 1517.85 478.889 1452.36 496.726C1386.87 514.564 1317.66 507.384 1256.54 476.412C1195.42 445.441 1146.19 392.599 1117.25 326.908C1088.31 261.217 1081.45 186.752 1097.86 116.227C1114.26 45.7017 1152.89 -16.5103 1207.18 -59.7864C1261.46 -103.063 1328.01 -124.719 1395.48 -121.059L1437.09 -118.803L1432.9 -29.2342L1391.29 -31.4899ZM1382.91 147.648C1374.67 147.202 1366.51 149.392 1359.43 153.942C1352.36 158.492 1346.7 165.198 1343.16 173.21C1339.63 181.223 1338.39 190.183 1339.59 198.957C1340.78 207.732 1344.37 215.926 1349.9 222.505C1355.43 229.084 1362.64 233.751 1370.63 235.917C1378.63 238.082 1387.03 237.649 1394.8 234.671C1402.56 231.694 1409.33 226.306 1414.25 219.189C1419.16 212.072 1422.01 203.546 1422.42 194.688L1424.52 149.904L1507.75 154.415L1505.65 199.2C1504.41 225.772 1495.87 251.351 1481.12 272.702C1466.37 294.053 1446.06 310.216 1422.77 319.149C1399.49 328.081 1374.26 329.381 1350.29 322.884C1326.31 316.388 1304.67 302.386 1288.09 282.65C1271.51 262.914 1260.74 238.33 1257.14 212.007C1253.54 185.683 1257.28 158.803 1267.88 134.766C1278.47 110.728 1295.46 90.6123 1316.68 76.9622C1337.9 63.3121 1362.41 56.7407 1387.1 58.0791L1428.71 60.3348L1424.52 149.904L1382.91 147.648Z" fill="url(#paint0_angular_201_70)" fill-opacity="0.5"/>
<path opacity="0.5" d="M221.122 541.426C224.571 514.721 220.584 487.515 209.665 463.248C198.747 438.981 181.387 418.744 159.781 405.096C138.175 391.447 113.293 385 88.2828 386.57C63.2723 388.14 39.2559 397.656 19.2707 413.915C-0.714455 430.174 -15.7708 452.445 -23.9944 477.913C-32.2179 503.381 -33.2393 530.902 -26.9295 556.994C-20.6196 583.087 -7.26171 606.58 11.4548 624.503C30.1714 642.425 53.406 653.972 78.2205 657.684L92.161 659.769L88.2861 689.774L74.3456 687.689C-10.343 675.022 -69.4581 590.865 -57.688 499.724C-45.9179 408.583 32.2811 344.964 116.97 357.631C201.658 370.298 260.773 454.455 249.003 545.596L247.066 560.599L219.185 556.428L221.122 541.426ZM165.36 533.086C167.604 515.712 164.174 498.039 155.657 483.085C147.14 468.13 134.063 456.82 118.66 451.087C103.257 445.353 86.4818 445.552 71.1993 451.648C55.9168 457.744 43.0744 469.36 34.8646 484.513C26.6549 499.666 23.5869 517.415 26.1846 534.731C28.7822 552.047 36.8843 567.856 49.1077 579.459C61.331 591.061 76.9176 597.738 93.2063 598.349C109.495 598.96 125.476 593.468 138.42 582.809L149.598 573.608L166.711 597.669L155.535 606.855C137.414 621.78 115.041 629.472 92.2363 628.619C69.4313 627.766 47.6086 618.421 30.4942 602.178C13.3798 585.935 2.03503 563.803 -1.60302 539.56C-5.24109 515.316 -0.946815 490.466 10.5465 469.251C22.0399 448.036 40.0196 431.773 61.4157 423.238C82.8119 414.702 106.298 414.425 127.863 422.452C149.428 430.479 167.735 446.314 179.659 467.251C191.583 488.189 196.383 512.932 193.241 537.256L191.304 552.258L163.423 548.088L165.36 533.086ZM109.598 524.745C109.981 521.778 109.538 518.755 108.325 516.059C107.112 513.363 105.183 511.114 102.782 509.597C100.382 508.081 97.6172 507.365 94.8382 507.539C92.0593 507.713 89.3908 508.771 87.1702 510.577C84.9496 512.384 83.2767 514.858 82.363 517.688C81.4493 520.518 81.3358 523.576 82.0369 526.475C82.738 529.374 84.2222 531.985 86.3018 533.976C88.3814 535.967 90.963 537.25 93.7202 537.663L107.661 539.748L103.786 569.753L89.8453 567.668C81.5738 566.431 73.8289 562.582 67.59 556.608C61.3512 550.633 56.8986 542.802 54.7953 534.105C52.692 525.407 53.0325 516.234 55.7737 507.745C58.5148 499.255 63.5336 491.831 70.1953 486.412C76.8571 480.992 84.8625 477.82 93.1994 477.297C101.536 476.773 109.83 478.922 117.032 483.472C124.234 488.022 130.021 494.767 133.66 502.856C137.3 510.945 138.629 520.014 137.479 528.915L135.542 543.918L107.661 539.748L109.598 524.745Z" fill="url(#paint1_angular_201_70)" fill-opacity="0.5"/>
</g>
<defs>
<radialGradient id="paint0_angular_201_70" cx="0" cy="0" r="1" gradientUnits="userSpaceOnUse" gradientTransform="translate(1176.87 209.564) rotate(168.714) scale(345.939 370.349)">
<stop offset="0.318813" stop-color="#F5F1EC"/>
<stop offset="0.504368" stop-color="#B5A49D"/>
<stop offset="0.993344" stop-color="#121111" stop-opacity="0.395079"/>
</radialGradient>
<radialGradient id="paint1_angular_201_70" cx="0" cy="0" r="1" gradientUnits="userSpaceOnUse" gradientTransform="translate(95.6577 522.66) rotate(-171.493) scale(155.051 164.031)">
<stop offset="0.223606" stop-color="#B5A49E"/>
<stop offset="0.584848" stop-color="#B5A49E" stop-opacity="0.499351"/>
<stop offset="1" stop-color="#B5A49E" stop-opacity="0"/>
</radialGradient>
<clipPath id="clip0_201_70">
<rect width="1440" height="565" fill="white"/>
</clipPath>
</defs>
</svg>
