<svg width="32" height="32" viewBox="0 0 32 32" fill="none" xmlns="http://www.w3.org/2000/svg">
<path d="M29.9467 7.99992C28.92 8.46659 27.8133 8.77325 26.6667 8.91992C27.84 8.21325 28.7467 7.09325 29.1733 5.74659C28.0667 6.41325 26.84 6.87992 25.5467 7.14659C24.4933 5.99992 23.0133 5.33325 21.3333 5.33325C18.2 5.33325 15.64 7.89325 15.64 11.0533C15.64 11.5066 15.6933 11.9466 15.7867 12.3599C11.04 12.1199 6.81334 9.83992 4.00001 6.38659C3.50668 7.22659 3.22668 8.21325 3.22668 9.25325C3.22668 11.2399 4.22668 12.9999 5.77334 13.9999C4.82668 13.9999 3.94668 13.7333 3.17334 13.3333V13.3733C3.17334 16.1466 5.14668 18.4666 7.76001 18.9866C6.92098 19.2162 6.04014 19.2481 5.18668 19.0799C5.54882 20.2166 6.25806 21.2111 7.2147 21.9238C8.17134 22.6365 9.32727 23.0315 10.52 23.0533C8.49818 24.6538 5.99201 25.519 3.41334 25.5066C2.96001 25.5066 2.50668 25.4799 2.05334 25.4266C4.58668 27.0533 7.60001 27.9999 10.8267 27.9999C21.3333 27.9999 27.1067 19.2799 27.1067 11.7199C27.1067 11.4666 27.1067 11.2266 27.0933 10.9733C28.2133 10.1733 29.1733 9.15992 29.9467 7.99992Z" fill="white"/>
</svg>
