<svg width="33" height="32" viewBox="0 0 33 32" fill="none" xmlns="http://www.w3.org/2000/svg">
<g clip-path="url(#clip0_201_31)">
<path d="M32.5 16V15.992C32.5 11.2574 30.4387 7.00537 27.1653 4.08137L27.1493 4.06804C27.1089 4.02446 27.0638 3.98555 27.0147 3.95204L27.012 3.95071C24.1048 1.39808 20.3661 -0.00616616 16.4973 0.00137297C12.4547 0.00137297 8.764 1.50271 5.95067 3.98004L5.96801 3.96537C5.9341 3.99109 5.90283 4.02013 5.87467 4.05204C4.18337 5.54963 2.82959 7.39083 1.90301 9.4511C0.976434 11.5114 0.498204 13.745 0.500005 16.004C0.500005 20.7374 2.55867 24.9894 5.82934 27.9147L5.84534 27.928C5.88769 27.9761 5.93507 28.0194 5.98667 28.0574L5.98934 28.0587C8.89579 30.6076 12.6316 32.0097 16.4973 32.0027C20.3812 32.0087 24.133 30.5935 27.0453 28.024L27.028 28.0387C28.7486 26.5428 30.1278 24.6947 31.0724 22.6196C32.0169 20.5445 32.5046 18.2907 32.5027 16.0107V16.0014L32.5 16ZM26.5507 26.4067C25.7581 25.7656 24.9057 25.2021 24.0053 24.724L23.9187 24.6814C24.736 22.3254 25.228 19.6094 25.2747 16.784V16.7627H30.956C30.7644 20.4179 29.1911 23.8638 26.5547 26.4027L26.5507 26.4067ZM17.2627 24.4C18.9733 24.492 20.572 24.868 22.0467 25.48L21.9507 25.4454C20.7693 28.1387 19.1067 29.9894 17.2627 30.396V24.4ZM17.2627 22.8747V16.7627H23.7533C23.7018 19.2937 23.263 21.8019 22.452 24.2L22.504 24.0254C20.8486 23.345 19.088 22.9561 17.3 22.876L17.264 22.8747H17.2627ZM17.2627 15.2374V9.12537C19.0989 9.04157 20.9066 8.6396 22.6053 7.93737L22.5 7.97604C23.24 10.1347 23.6947 12.6227 23.7533 15.2094V15.2374H17.2627ZM17.2627 7.60004V1.60671C19.1067 2.01337 20.7693 3.85604 21.9507 6.55737C20.572 7.13071 18.9733 7.50537 17.3013 7.59871L17.2627 7.60004ZM21.068 2.26671C22.6391 2.79075 24.1085 3.58092 25.412 4.60271L25.3813 4.57871C24.7907 5.04271 24.128 5.48004 23.4293 5.86004L23.3547 5.89737C22.7901 4.56501 22.0139 3.33267 21.056 2.24804L21.068 2.26271V2.26671ZM15.7347 1.61071V7.60004C14.09 7.51614 12.4719 7.15085 10.9507 6.52004L11.0467 6.55471C12.2333 3.86137 13.8933 2.01204 15.7373 1.60537L15.7347 1.61071ZM9.644 5.89337C8.92124 5.50451 8.23258 5.05537 7.58534 4.55071L7.61734 4.57471C8.88285 3.58291 10.3063 2.81124 11.828 2.29204L11.9293 2.26137C10.9966 3.31662 10.2365 4.51272 9.67734 5.80537L9.644 5.89337ZM15.7373 9.12404V15.236H9.24667C9.30534 12.6214 9.76 10.1334 10.552 7.80004L10.5 7.97471C12.1548 8.654 13.9144 9.04238 15.7013 9.12271L15.7373 9.12404ZM15.7373 16.7614V22.8734C13.9011 22.9572 12.0934 23.3591 10.3947 24.0614L10.5 24.0227C9.76 21.8654 9.30534 19.376 9.24667 16.7894V16.7614H15.7373ZM15.7373 24.3987V30.392C13.8933 29.9854 12.2307 28.1427 11.0493 25.4414C12.428 24.868 14.0267 24.4947 15.6987 24.4014L15.7373 24.3987ZM11.9373 29.732C10.3666 29.2095 8.89726 28.4212 7.59334 27.4014L7.62534 27.4254C8.21601 26.9614 8.87867 26.524 9.57734 26.144L9.65201 26.1067C10.2118 27.4396 10.9881 28.6709 11.9493 29.7507L11.9373 29.7374V29.732ZM23.356 26.1054C24.1293 26.5254 24.792 26.9614 25.4147 27.448L25.3827 27.424C24.1172 28.4158 22.6937 29.1875 21.172 29.7067L21.0707 29.7374C22.0034 28.6826 22.7635 27.487 23.3227 26.1947L23.356 26.108V26.1054ZM30.956 15.2374H25.2747C25.2338 12.4786 24.7577 9.74365 23.864 7.13337L23.9187 7.31737C24.8605 6.82146 25.7523 6.23562 26.5813 5.56804L26.5493 5.59204C29.1804 8.12141 30.7542 11.5545 30.9533 15.1987L30.9547 15.236L30.956 15.2374ZM6.44934 5.59337C7.21734 6.21737 8.08001 6.78937 8.99467 7.27604L9.08134 7.31871C8.26401 9.67471 7.77201 12.3907 7.72534 15.216V15.2374H2.04267C2.23426 11.5822 3.80754 8.13631 6.44401 5.59737L6.44934 5.59337ZM2.04401 16.7627H7.72534C7.76621 19.5214 8.24229 22.2564 9.13601 24.8667L9.08134 24.6827C8.08001 25.2147 7.21867 25.7867 6.41867 26.432L6.45067 26.408C3.81965 23.8787 2.24582 20.4456 2.04667 16.8014L2.04534 16.764L2.04401 16.7627Z" fill="#251D18"/>
</g>
<defs>
<clipPath id="clip0_201_31">
<rect width="32" height="32" fill="white" transform="translate(0.5)"/>
</clipPath>
</defs>
</svg>
